<svg width="30" height="29" viewBox="0 0 30 29" fill="none" xmlns="http://www.w3.org/2000/svg">
<path d="M22.3259 0C22.9 0.105002 23.4799 0.171319 24.0423 0.32606C26.3035 0.9616 27.9847 2.28242 29.0802 4.25535C29.7363 5.43801 30.0058 6.70356 29.9999 8.03544C29.994 12.1416 29.9999 16.2477 29.9999 20.3539C29.9999 22.1499 29.4668 23.7913 28.2952 25.2116C26.614 27.2398 24.3879 28.2677 21.6639 28.2898C19.2738 28.3119 16.8838 28.2953 14.4878 28.2953C12.4961 28.2953 10.5044 28.2953 8.51263 28.2953C5.56604 28.2898 3.20525 27.1845 1.48299 24.9187C0.469549 23.5868 0.00676428 22.0726 0.00676428 20.4368C0.000906242 16.2256 -0.00495179 12.02 0.00676428 7.80885C0.0184803 4.38799 2.32069 1.42029 5.77107 0.381324C6.38617 0.198952 7.04227 0.127108 7.68079 0C12.5605 0 17.4461 0 22.3259 0ZM15.0033 25.7808C15.0033 25.7863 15.0033 25.7863 15.0033 25.7808C17.0712 25.7863 19.1391 25.7863 21.2129 25.7863C21.9861 25.7863 22.7535 25.7532 23.4916 25.51C25.8583 24.7363 27.3228 22.791 27.3345 20.3649C27.3462 16.2311 27.3404 12.0974 27.3404 7.96359C27.3404 6.96883 27.1295 6.01829 26.5788 5.16722C25.4306 3.37665 23.7201 2.51453 21.5175 2.509C17.165 2.50347 12.8124 2.509 8.45991 2.509C7.59292 2.509 6.74351 2.63058 5.95853 2.99533C3.79106 4.00667 2.68389 5.67012 2.67217 7.94149C2.64874 12.0863 2.66631 16.2311 2.67217 20.3704C2.67217 21.3652 2.88892 22.3102 3.45129 23.1613C4.58775 24.8966 6.25729 25.7698 8.4189 25.7808C10.6098 25.7919 12.8066 25.7808 15.0033 25.7808Z" fill="white"/>
<path d="M22.7367 14.1643C22.6957 18.2151 19.1926 21.4813 14.9513 21.437C10.7042 21.3928 7.24799 18.0936 7.27728 14.109C7.30657 10.1023 10.8097 6.8141 15.0216 6.85279C19.339 6.89147 22.7133 10.1521 22.7367 14.1643ZM14.9748 18.9225C17.7808 18.9391 20.0654 16.8004 20.0654 14.1532C20.0713 11.5226 17.8159 9.39495 15.0041 9.37837C12.2449 9.36179 9.96613 11.495 9.9427 14.1256C9.91927 16.7451 12.1805 18.9059 14.9748 18.9225Z" fill="white"/>
<path d="M23.0295 4.73616C24.0898 4.70828 24.9744 5.52794 25.0095 6.57621C25.0388 7.55199 24.1543 8.41625 23.1116 8.43855C22.0278 8.46086 21.1316 7.65235 21.1023 6.62639C21.0788 5.61158 21.94 4.76404 23.0295 4.73616Z" fill="white"/>
</svg>
