<svg width="705" height="471" viewBox="0 0 705 471" fill="none" xmlns="http://www.w3.org/2000/svg">
<mask id="mask0_132_297" style="mask-type:alpha" maskUnits="userSpaceOnUse" x="35" y="35" width="635" height="401">
<rect x="35" y="35" width="635" height="401" rx="15" fill="white"/>
</mask>
<g mask="url(#mask0_132_297)">
<path opacity="0.0946098" d="M84.2828 458.405L116.251 386.401C118.232 381.94 118.002 376.578 115.646 372.364L77.5829 304.337C75.2137 300.116 71.0811 297.666 66.7447 297.913L-3.2802 301.875C-7.62339 302.137 -11.52 305.035 -13.5005 309.496L-45.4687 381.499C-47.4492 385.96 -47.22 391.323 -44.8642 395.536L-6.80062 463.563C-4.44476 467.777 -0.312133 470.226 4.03755 469.987L74.0625 466.026C78.3988 465.778 82.3023 462.865 84.2828 458.405Z" fill="url(#paint0_linear_132_297)"/>
<path opacity="0.0946098" d="M623.937 85.6701L609.634 162.387C608.748 167.139 610.127 172.096 613.249 175.36L663.681 228.042C666.817 231.31 671.22 232.406 675.228 230.917L739.96 206.899C743.971 205.393 746.992 201.549 747.878 196.796L762.182 120.08C763.068 115.327 761.688 110.37 758.566 107.107L708.135 54.4242C705.013 51.1605 700.61 50.0645 696.587 51.55L631.855 75.5677C627.847 77.0567 624.823 80.9173 623.937 85.6701Z" fill="url(#paint1_linear_132_297)"/>
<path opacity="0.0946098" d="M185.497 451.387L201 416.47C201.963 414.301 201.851 411.708 200.703 409.668L182.245 376.675C181.097 374.634 179.097 373.449 176.993 373.562L143.032 375.486C140.928 375.599 139.033 377.021 138.077 379.175L122.575 414.092C121.612 416.261 121.724 418.853 122.872 420.894L141.33 453.887C142.478 455.928 144.478 457.113 146.582 457L180.542 455.076C182.634 454.955 184.541 453.54 185.497 451.387Z" fill="url(#paint2_linear_132_297)"/>
<path opacity="0.0946098" d="M605.53 -22.7992L597.444 20.5673C596.942 23.261 597.721 26.0536 599.492 27.8937L628 57.679C629.77 59.5191 632.254 60.1372 634.523 59.3027L671.117 45.7215C673.386 44.887 675.094 42.6934 675.593 40.0189L683.679 -3.34765C684.181 -6.04134 683.402 -8.83397 681.632 -10.674L653.123 -40.4594C651.353 -42.2994 648.869 -42.9176 646.6 -42.0831L610.006 -28.5019C607.754 -27.6633 606.029 -25.4738 605.53 -22.7992Z" fill="url(#paint3_linear_132_297)"/>
<path opacity="0.0946098" d="M72.7712 275.375L80.1196 258.824C80.5772 257.793 80.5139 256.57 79.9862 255.597L71.2358 239.957C70.688 238.991 69.7415 238.43 68.7429 238.48L52.6441 239.391C51.6456 239.44 50.7556 240.118 50.298 241.148L42.9496 257.699C42.492 258.73 42.5554 259.953 43.083 260.926L51.8334 276.566C52.3813 277.532 53.3278 278.093 54.3263 278.043L70.4251 277.132C71.4172 277.059 72.3137 276.406 72.7712 275.375Z" fill="url(#paint4_linear_132_297)"/>
<path opacity="0.0946098" d="M563.406 60.1446L558.383 87.083C558.07 88.7603 558.567 90.4819 559.645 91.641L577.355 110.144C578.46 111.283 580 111.666 581.413 111.153L604.146 102.718C605.559 102.205 606.607 100.842 606.92 99.1641L611.943 72.2258C612.256 70.5484 611.759 68.8268 610.681 67.6677L592.97 49.1652C591.866 48.0258 590.325 47.6423 588.913 48.1553L566.18 56.5911C564.784 57.1345 563.718 58.4672 563.406 60.1446Z" fill="url(#paint5_linear_132_297)"/>
</g>
<defs>
<linearGradient id="paint0_linear_132_297" x1="72.903" y1="299.453" x2="-20.7304" y2="457.428" gradientUnits="userSpaceOnUse">
<stop stop-color="#D4145A"/>
<stop offset="1" stop-color="#2E3192"/>
</linearGradient>
<linearGradient id="paint1_linear_132_297" x1="669.125" y1="231.26" x2="713.287" y2="53.8349" gradientUnits="userSpaceOnUse">
<stop stop-color="#D4145A"/>
<stop offset="1" stop-color="#2E3192"/>
</linearGradient>
<linearGradient id="paint2_linear_132_297" x1="68.3392" y1="388.037" x2="22.9212" y2="464.664" gradientUnits="userSpaceOnUse">
<stop stop-color="#D4145A"/>
<stop offset="1" stop-color="#2E3192"/>
</linearGradient>
<linearGradient id="paint3_linear_132_297" x1="631.084" y1="59.5321" x2="656.054" y2="-40.7886" gradientUnits="userSpaceOnUse">
<stop stop-color="#D4145A"/>
<stop offset="1" stop-color="#2E3192"/>
</linearGradient>
<linearGradient id="paint4_linear_132_297" x1="70.1548" y1="238.831" x2="48.6285" y2="275.149" gradientUnits="userSpaceOnUse">
<stop stop-color="#D4145A"/>
<stop offset="1" stop-color="#2E3192"/>
</linearGradient>
<linearGradient id="paint5_linear_132_297" x1="579.276" y1="111.277" x2="594.785" y2="48.9657" gradientUnits="userSpaceOnUse">
<stop stop-color="#D4145A"/>
<stop offset="1" stop-color="#2E3192"/>
</linearGradient>
</defs>
</svg>
