<svg width="1251" height="463" viewBox="0 0 1251 463" fill="none" xmlns="http://www.w3.org/2000/svg">
<path opacity="0.0946098" d="M129.646 467.268L195.135 339.606C199.192 331.697 198.722 322.189 193.896 314.718L115.921 194.107C111.068 186.622 102.602 182.28 93.7184 182.718L-49.7314 189.741C-58.6287 190.207 -66.6111 195.344 -70.6682 203.253L-136.157 330.915C-140.214 338.824 -139.744 348.332 -134.918 355.803L-56.9432 476.414C-52.1171 483.885 -43.6512 488.228 -34.7406 487.804L108.709 480.78C117.592 480.342 125.589 475.177 129.646 467.268Z" fill="url(#paint0_linear_604_3)"/>
<path opacity="0.0946098" d="M1063 -4.14567L1032.78 136.116C1030.91 144.806 1033.83 153.868 1040.42 159.835L1146.96 256.155C1153.58 262.129 1162.88 264.133 1171.35 261.41L1308.09 217.498C1316.57 214.746 1322.95 207.717 1324.82 199.028L1355.04 58.766C1356.91 50.0765 1353.99 41.0143 1347.4 35.0471L1240.86 -61.2729C1234.27 -67.2401 1224.97 -69.2439 1216.47 -66.528L1079.72 -22.6161C1071.26 -19.8937 1064.87 -12.8353 1063 -4.14567Z" fill="url(#paint1_linear_604_3)"/>
<path opacity="0.0946098" d="M316.139 479.224L347.896 417.316C349.869 413.471 349.64 408.874 347.287 405.256L309.476 346.76C307.123 343.142 303.027 341.04 298.716 341.24L229.147 344.652C224.835 344.852 220.954 347.374 218.996 351.192L187.238 413.1C185.265 416.946 185.495 421.542 187.847 425.16L225.659 483.656C228.011 487.275 232.107 489.376 236.418 489.176L305.988 485.764C310.272 485.55 314.18 483.042 316.139 479.224Z" fill="url(#paint2_linear_604_3)"/>
<path opacity="0.0946098" d="M879.766 32.5734L865.114 100.592C864.204 104.817 865.615 109.197 868.823 112.083L920.486 158.8C923.695 161.686 928.196 162.656 932.308 161.347L998.624 140.045C1002.74 138.736 1005.83 135.296 1006.74 131.101L1021.39 63.0824C1022.3 58.8574 1020.89 54.4773 1017.68 51.5913L966.016 4.87432C962.808 1.98826 958.307 1.01869 954.194 2.32759L887.879 23.6291C883.796 24.9444 880.67 28.3785 879.766 32.5734Z" fill="url(#paint3_linear_604_3)"/>
<path opacity="0.0946098" d="M264.022 311.971L279.075 282.626C280.013 280.798 279.883 278.63 278.802 276.905L260.876 249.175C259.754 247.463 257.815 246.468 255.769 246.556L222.79 248.172C220.745 248.259 218.921 249.46 217.984 251.287L202.93 280.632C201.993 282.459 202.123 284.627 203.204 286.353L221.129 314.082C222.252 315.795 224.191 316.789 226.236 316.702L259.216 315.086C261.248 314.957 263.084 313.798 264.022 311.971Z" fill="url(#paint4_linear_604_3)"/>
<path opacity="0.0946098" d="M973.396 180.639L966.45 212.88C966.018 214.888 966.704 216.948 968.195 218.335L992.687 240.48C994.214 241.844 996.344 242.303 998.297 241.689L1029.73 231.593C1031.69 230.979 1033.14 229.347 1033.57 227.34L1040.52 195.098C1040.95 193.091 1040.26 191.03 1038.77 189.643L1014.28 167.498C1012.75 166.134 1010.62 165.675 1008.67 166.289L977.232 176.386C975.302 177.036 973.828 178.631 973.396 180.639Z" fill="url(#paint5_linear_604_3)"/>
<defs>
<linearGradient id="paint0_linear_604_3" x1="106.334" y1="185.447" x2="-47.3744" y2="485.083" gradientUnits="userSpaceOnUse">
<stop stop-color="#D4145A"/>
<stop offset="1" stop-color="#2E3192"/>
</linearGradient>
<linearGradient id="paint1_linear_604_3" x1="1158.46" y1="262.039" x2="1229.38" y2="-67.1699" gradientUnits="userSpaceOnUse">
<stop stop-color="#D4145A"/>
<stop offset="1" stop-color="#2E3192"/>
</linearGradient>
<linearGradient id="paint2_linear_604_3" x1="304.83" y1="342.506" x2="230.272" y2="487.847" gradientUnits="userSpaceOnUse">
<stop stop-color="#D4145A"/>
<stop offset="1" stop-color="#2E3192"/>
</linearGradient>
<linearGradient id="paint3_linear_604_3" x1="926.075" y1="161.707" x2="960.475" y2="2.02017" gradientUnits="userSpaceOnUse">
<stop stop-color="#D4145A"/>
<stop offset="1" stop-color="#2E3192"/>
</linearGradient>
<linearGradient id="paint4_linear_604_3" x1="258.662" y1="247.178" x2="223.324" y2="316.064" gradientUnits="userSpaceOnUse">
<stop stop-color="#D4145A"/>
<stop offset="1" stop-color="#2E3192"/>
</linearGradient>
<linearGradient id="paint5_linear_604_3" x1="995.342" y1="241.836" x2="1011.65" y2="166.151" gradientUnits="userSpaceOnUse">
<stop stop-color="#D4145A"/>
<stop offset="1" stop-color="#2E3192"/>
</linearGradient>
</defs>
</svg>
