<svg width="700" height="581" viewBox="0 0 700 581" fill="none" xmlns="http://www.w3.org/2000/svg">
<path opacity="0.0946098" d="M700 393.249V280.751C700 273.763 696.298 267.32 690.275 263.851L593.225 207.602C587.202 204.133 579.798 204.133 573.775 207.602L476.725 263.851C470.702 267.32 467 273.812 467 280.751V393.249C467 400.237 470.702 406.68 476.725 410.149L573.775 466.398C579.798 469.867 587.202 469.867 593.225 466.398L690.275 410.149C696.248 406.68 700 400.188 700 393.249Z" fill="url(#paint0_linear_51_1471)"/>
<path opacity="0.0946098" d="M397 491.872V545.128C397 548.445 398.77 551.464 401.573 553.147L447.402 579.775C450.254 581.408 453.746 581.408 456.598 579.775L502.427 553.147C505.279 551.513 507 548.445 507 545.128V491.872C507 488.555 505.23 485.536 502.427 483.853L456.598 457.225C453.746 455.592 450.254 455.592 447.402 457.225L401.573 483.853C398.77 485.487 397 488.555 397 491.872Z" fill="url(#paint1_linear_51_1471)"/>
<path opacity="0.0946098" d="M424 387.178V155.822C424 141.489 416.34 128.194 403.936 121.028L203.589 5.37489C191.135 -1.79163 175.815 -1.79163 163.411 5.37489L-36.9357 121.028C-49.34 128.244 -57 141.489 -57 155.822V387.178C-57 401.511 -49.34 414.806 -36.9357 421.972L163.411 537.625C175.815 544.792 191.135 544.792 203.589 537.625L403.936 421.972C416.34 414.806 424 401.511 424 387.178Z" fill="url(#paint2_linear_51_1471)"/>
<defs>
<linearGradient id="paint0_linear_51_1471" x1="583.453" y1="204.911" x2="583.453" y2="469.023" gradientUnits="userSpaceOnUse">
<stop stop-color="#D4145A"/>
<stop offset="1" stop-color="#2E3192"/>
</linearGradient>
<linearGradient id="paint1_linear_51_1471" x1="452.015" y1="581" x2="452.015" y2="455.982" gradientUnits="userSpaceOnUse">
<stop stop-color="#D4145A"/>
<stop offset="1" stop-color="#2E3192"/>
</linearGradient>
<linearGradient id="paint2_linear_51_1471" x1="183.49" y1="0.00627689" x2="183.49" y2="543.02" gradientUnits="userSpaceOnUse">
<stop stop-color="#D4145A"/>
<stop offset="1" stop-color="#2E3192"/>
</linearGradient>
</defs>
</svg>
